<?xml version="1.0" encoding="UTF-8" standalone="no"?>
<!-- Created with Inkscape (http://www.inkscape.org/) -->

<svg
   xmlns:dc="http://purl.org/dc/elements/1.1/"
   xmlns:cc="http://creativecommons.org/ns#"
   xmlns:rdf="http://www.w3.org/1999/02/22-rdf-syntax-ns#"
   xmlns:svg="http://www.w3.org/2000/svg"
   xmlns="http://www.w3.org/2000/svg"
   xmlns:sodipodi="http://sodipodi.sourceforge.net/DTD/sodipodi-0.dtd"
   xmlns:inkscape="http://www.inkscape.org/namespaces/inkscape"
   width="64px"
   height="64px"
   id="svg3331"
   sodipodi:version="0.32"
   inkscape:version="0.47 r22583"
   sodipodi:docname="calendar.svg"
   inkscape:output_extension="org.inkscape.output.svg.inkscape"
   version="1.1">
  <defs
     id="defs3333">
    <inkscape:perspective
       sodipodi:type="inkscape:persp3d"
       inkscape:vp_x="0 : 32 : 1"
       inkscape:vp_y="0 : 1000 : 0"
       inkscape:vp_z="64 : 32 : 1"
       inkscape:persp3d-origin="32 : 21.333333 : 1"
       id="perspective3339" />
    <inkscape:perspective
       id="perspective3605"
       inkscape:persp3d-origin="0.5 : 0.33333333 : 1"
       inkscape:vp_z="1 : 0.5 : 1"
       inkscape:vp_y="0 : 1000 : 0"
       inkscape:vp_x="0 : 0.5 : 1"
       sodipodi:type="inkscape:persp3d" />
  </defs>
  <sodipodi:namedview
     id="base"
     pagecolor="#ffffff"
     bordercolor="#666666"
     borderopacity="1.0"
     inkscape:pageopacity="0.0"
     inkscape:pageshadow="2"
     inkscape:zoom="7.547"
     inkscape:cx="-20.39"
     inkscape:cy="32.25"
     inkscape:current-layer="layer1"
     showgrid="true"
     inkscape:document-units="px"
     inkscape:grid-bbox="true"
     inkscape:snap-global="true"
     objecttolerance="10"
     gridtolerance="10"
     guidetolerance="10"
     inkscape:window-width="1920"
     inkscape:window-height="1080"
     inkscape:window-x="0"
     inkscape:window-y="0"
     inkscape:window-maximized="0">
    <inkscape:grid
       type="xygrid"
       id="grid3341"
       dotted="true"
       visible="true"
       enabled="true" />
  </sodipodi:namedview>
  <metadata
     id="metadata3336">
    <rdf:RDF>
      <cc:Work
         rdf:about="">
        <dc:format>image/svg+xml</dc:format>
        <dc:type
           rdf:resource="http://purl.org/dc/dcmitype/StillImage" />
        <dc:subject>
          <rdf:Bag>
            <rdf:li>calendar</rdf:li>
            <rdf:li>date</rdf:li>
            <rdf:li>day</rdf:li>
            <rdf:li>week</rdf:li>
            <rdf:li>year</rdf:li>
            <rdf:li>time</rdf:li>
            <rdf:li>month</rdf:li>
            <rdf:li>events</rdf:li>
            <rdf:li>appointments</rdf:li>
          </rdf:Bag>
        </dc:subject>
        <dc:title />
      </cc:Work>
    </rdf:RDF>
  </metadata>
  <g
     id="layer1"
     inkscape:label="Layer 1"
     inkscape:groupmode="layer">
    <path
       style="fill:none;stroke:#000000;stroke-width:4;stroke-linecap:round;stroke-linejoin:round;stroke-miterlimit:4;stroke-opacity:1;stroke-dashoffset:0"
       d="M 62,18 C 62,25.78 62,56.57 62,56.57 62,59.58 59.54,62 56.48,62 L 7.525,62 C 4.464,62 2,59.58 2,56.57 L 2,18"
       id="path3596"
       sodipodi:nodetypes="cccccc" />
    <path
       style="fill:#000000;fill-opacity:1;stroke:#000000;stroke-width:4;stroke-linecap:round;stroke-linejoin:round;stroke-miterlimit:4;stroke-opacity:1;stroke-dashoffset:0"
       d="M 62,18 2,18 2,11.43 C 2,8.423 4.464,6 7.525,6 L 56.48,6 C 59.54,6 62,8.423 62,11.43 62,11.43 61.97,18 62,18 z"
       id="rect2385" />
    <path
       style="fill:none;stroke:#000000;stroke-width:4;stroke-linecap:round;stroke-linejoin:miter;stroke-miterlimit:4;stroke-opacity:1;stroke-dasharray:none"
       d="M 14,2 14,12"
       id="path3595"
       sodipodi:nodetypes="cc" />
    <path
       style="fill:none;stroke:#000000;stroke-width:4;stroke-linecap:round;stroke-linejoin:miter;stroke-miterlimit:4;stroke-opacity:1;stroke-dasharray:none"
       d="M 50,2 50,12"
       id="path3595-5"
       sodipodi:nodetypes="cc" />
    <path
       style="font-size:40px;font-style:normal;font-variant:normal;font-weight:bold;font-stretch:normal;fill:#000000;fill-opacity:1;stroke:none;font-family:Arial;-inkscape-font-specification:Andale Mono Bold"
       id="path2827"
       d="M 22.99,48.16 C 24.76,47.97 26.53,47.77 28.3,47.58 28.38,49.02 29.3,50.55 30.84,50.71 32.8,51.12 34.61,49.55 35.09,47.73 35.6,46.11 35.77,44.4 35.9,42.71 34.26,44.77 31.4,45.55 28.89,44.91 25.3,44.07 22.73,40.6 22.5,36.99 22.15,33.75 23.08,30.19 25.69,28.08 29.22,25.1 35.09,25.37 38.23,28.81 40.74,31.4 41.32,35.17 41.52,38.63 41.64,42.58 41.52,46.77 39.64,50.36 38.01,53.39 34.66,55.36 31.22,55.29 28.55,55.4 25.68,54.31 24.3,51.92 23.6,50.78 23.2,49.48 22.99,48.16 z M 35.41,36.17 C 35.48,34.05 34.62,31.63 32.51,30.79 30.72,30.05 28.57,31.27 28.15,33.13 27.68,35.07 27.65,37.21 28.45,39.06 29.3,41.03 32.07,41.76 33.75,40.39 35.05,39.41 35.42,37.72 35.41,36.17 z" />
  </g>
</svg>
