<?xml version="1.0" encoding="UTF-8" standalone="no"?>
<!-- Created with Inkscape (http://www.inkscape.org/) -->

<svg
   xmlns:dc="http://purl.org/dc/elements/1.1/"
   xmlns:cc="http://creativecommons.org/ns#"
   xmlns:rdf="http://www.w3.org/1999/02/22-rdf-syntax-ns#"
   xmlns:svg="http://www.w3.org/2000/svg"
   xmlns="http://www.w3.org/2000/svg"
   xmlns:sodipodi="http://sodipodi.sourceforge.net/DTD/sodipodi-0.dtd"
   xmlns:inkscape="http://www.inkscape.org/namespaces/inkscape"
   version="1.0"
   width="64"
   height="64"
   id="svg4729"
   sodipodi:version="0.32"
   inkscape:version="0.47 r22583"
   sodipodi:docname="currency-pound.svg"
   inkscape:output_extension="org.inkscape.output.svg.inkscape">
  <metadata
     id="metadata7">
    <rdf:RDF>
      <cc:Work
         rdf:about="">
        <dc:format>image/svg+xml</dc:format>
        <dc:type
           rdf:resource="http://purl.org/dc/dcmitype/StillImage" />
        <dc:subject>
          <rdf:Bag>
            <rdf:li>currency</rdf:li>
            <rdf:li>:pound</rdf:li>
            <rdf:li>sterling</rdf:li>
            <rdf:li>payment</rdf:li>
            <rdf:li>buy</rdf:li>
            <rdf:li>purchase</rdf:li>
            <rdf:li>money</rdf:li>
          </rdf:Bag>
        </dc:subject>
      </cc:Work>
    </rdf:RDF>
  </metadata>
  <sodipodi:namedview
     inkscape:window-height="1080"
     inkscape:window-width="1920"
     inkscape:pageshadow="2"
     inkscape:pageopacity="0.0"
     guidetolerance="10.0"
     gridtolerance="10.0"
     objecttolerance="10.0"
     borderopacity="1.0"
     bordercolor="#666666"
     pagecolor="#ffffff"
     id="base"
     showgrid="true"
     inkscape:zoom="7.219"
     inkscape:cx="-57.7"
     inkscape:cy="32.12"
     inkscape:window-x="0"
     inkscape:window-y="0"
     inkscape:current-layer="icon"
     showguides="true"
     inkscape:guide-bbox="true"
     inkscape:window-maximized="0">
    <inkscape:grid
       type="xygrid"
       id="grid2380"
       visible="true"
       enabled="true"
       spacingx="4px"
       spacingy="4px"
       empspacing="4"
       dotted="true"
       originx="2px"
       originy="2px" />
  </sodipodi:namedview>
  <defs
     id="defs4731">
    <inkscape:perspective
       sodipodi:type="inkscape:persp3d"
       inkscape:vp_x="0 : 32 : 1"
       inkscape:vp_y="0 : 1000 : 0"
       inkscape:vp_z="64 : 32 : 1"
       inkscape:persp3d-origin="32 : 21.333333 : 1"
       id="perspective9" />
  </defs>
  <g
     id="icon"
     inkscape:label="">
    <path
       style="font-size:64px;font-style:normal;font-variant:normal;font-weight:bold;font-stretch:normal;fill:#000000;fill-opacity:1;stroke:none;font-family:Bitstream Vera Serif;-inkscape-font-specification:Bitstream Vera Serif Bold"
       d="M 48.97,16.44 45.22,16.44 C 45.09,14.42 44.51,12.84 43.47,11.72 42.45,10.59 41.06,10.03 39.31,10.03 36.87,10.03 35.12,10.81 34.06,12.38 33,13.92 32.47,16.51 32.47,20.16 L 32.47,28.53 43.47,28.53 43.47,32.31 32.47,32.31 32.47,49.72 45.59,49.72 45.59,42.59 49.88,42.59 49.88,54 14.59,54 14.59,50.22 20.62,50.22 20.62,32.31 14.59,32.31 14.59,28.53 20.62,28.53 20.62,19.87 C 20.62,15.38 22.01,12.02 24.78,9.813 27.57,7.604 31.82,6.5 37.53,6.5 38.89,6.5 40.5,6.594 42.38,6.781 44.27,6.969 46.47,7.24 48.97,7.594 L 48.97,16.44"
       id="text2408" />
  </g>
</svg>
