<?xml version="1.0" encoding="UTF-8" standalone="no"?>
<!-- Created with Inkscape (http://www.inkscape.org/) -->

<svg
   xmlns:dc="http://purl.org/dc/elements/1.1/"
   xmlns:cc="http://creativecommons.org/ns#"
   xmlns:rdf="http://www.w3.org/1999/02/22-rdf-syntax-ns#"
   xmlns:svg="http://www.w3.org/2000/svg"
   xmlns="http://www.w3.org/2000/svg"
   xmlns:sodipodi="http://sodipodi.sourceforge.net/DTD/sodipodi-0.dtd"
   xmlns:inkscape="http://www.inkscape.org/namespaces/inkscape"
   version="1.0"
   width="64"
   height="64"
   id="svg4729"
   sodipodi:version="0.32"
   inkscape:version="0.47 r22583"
   sodipodi:docname="currency-euro.svg"
   inkscape:output_extension="org.inkscape.output.svg.inkscape">
  <metadata
     id="metadata7">
    <rdf:RDF>
      <cc:Work
         rdf:about="">
        <dc:format>image/svg+xml</dc:format>
        <dc:type
           rdf:resource="http://purl.org/dc/dcmitype/StillImage" />
        <dc:subject>
          <rdf:Bag>
            <rdf:li>currency</rdf:li>
            <rdf:li>:euro</rdf:li>
            <rdf:li>payment</rdf:li>
            <rdf:li>buy</rdf:li>
            <rdf:li>purchase</rdf:li>
            <rdf:li>money</rdf:li>
          </rdf:Bag>
        </dc:subject>
      </cc:Work>
    </rdf:RDF>
  </metadata>
  <sodipodi:namedview
     inkscape:window-height="1080"
     inkscape:window-width="1920"
     inkscape:pageshadow="2"
     inkscape:pageopacity="0.0"
     guidetolerance="10.0"
     gridtolerance="10.0"
     objecttolerance="10.0"
     borderopacity="1.0"
     bordercolor="#666666"
     pagecolor="#ffffff"
     id="base"
     showgrid="true"
     inkscape:zoom="7.219"
     inkscape:cx="9.351"
     inkscape:cy="32.12"
     inkscape:window-x="0"
     inkscape:window-y="0"
     inkscape:current-layer="icon"
     showguides="true"
     inkscape:guide-bbox="true"
     inkscape:window-maximized="0">
    <inkscape:grid
       type="xygrid"
       id="grid2380"
       visible="true"
       enabled="true"
       spacingx="4px"
       spacingy="4px"
       empspacing="4"
       dotted="true"
       originx="2px"
       originy="2px" />
  </sodipodi:namedview>
  <defs
     id="defs4731">
    <inkscape:perspective
       sodipodi:type="inkscape:persp3d"
       inkscape:vp_x="0 : 32 : 1"
       inkscape:vp_y="0 : 1000 : 0"
       inkscape:vp_z="64 : 32 : 1"
       inkscape:persp3d-origin="32 : 21.333333 : 1"
       id="perspective9" />
  </defs>
  <g
     id="icon"
     inkscape:label="">
    <path
       style="font-size:64px;font-style:normal;font-variant:normal;font-weight:bold;font-stretch:normal;fill:#000000;fill-opacity:1;stroke:none;font-family:Bitstream Vera Serif;-inkscape-font-specification:Bitstream Vera Serif Bold"
       d="M 51.53,40.69 C 50.74,45.33 49,48.86 46.31,51.28 43.62,53.7 40.09,54.91 35.72,54.91 30.43,54.91 26.03,53.39 22.53,50.34 19.05,47.3 16.77,43 15.69,37.44 L 9.75,37.44 11.41,33.72 15.19,33.72 C 15.19,33.57 15.18,33.34 15.16,33.03 15.09,31.93 15.06,31.16 15.06,30.72 15.06,30.2 15.09,29.35 15.16,28.19 15.18,27.98 15.19,27.81 15.19,27.69 L 9.75,27.69 11.41,23.97 15.69,23.97 C 16.77,18.41 19.05,14.1 22.53,11.06 26.03,8.021 30.43,6.5 35.72,6.5 37.97,6.5 40.29,6.823 42.69,7.469 45.08,8.115 47.73,9.135 50.63,10.53 L 50.63,22 46.94,22 C 46.1,17.92 44.93,14.93 43.41,13.03 41.91,11.11 39.95,10.16 37.53,10.16 34.82,10.16 32.7,11.29 31.16,13.56 29.61,15.83 28.6,19.3 28.12,23.97 L 42.84,23.97 41.16,27.69 27.94,27.69 C 27.87,28.6 27.83,29.32 27.81,29.84 27.79,30.34 27.78,30.8 27.78,31.22 27.78,31.28 27.79,31.59 27.81,32.16 27.85,32.72 27.89,33.24 27.91,33.72 L 38.47,33.72 36.81,37.44 28.19,37.44 C 28.6,42.06 29.58,45.52 31.12,47.81 32.69,50.1 34.84,51.25 37.59,51.25 39.93,51.25 41.84,50.35 43.34,48.56 44.86,46.75 45.91,44.13 46.47,40.69 L 51.53,40.69"
       id="text2381" />
  </g>
</svg>
