<?xml version="1.0" encoding="UTF-8" standalone="no"?>
<!-- Created with Inkscape (http://www.inkscape.org/) -->

<svg
   xmlns:dc="http://purl.org/dc/elements/1.1/"
   xmlns:cc="http://creativecommons.org/ns#"
   xmlns:rdf="http://www.w3.org/1999/02/22-rdf-syntax-ns#"
   xmlns:svg="http://www.w3.org/2000/svg"
   xmlns="http://www.w3.org/2000/svg"
   xmlns:sodipodi="http://sodipodi.sourceforge.net/DTD/sodipodi-0.dtd"
   xmlns:inkscape="http://www.inkscape.org/namespaces/inkscape"
   width="64px"
   height="64px"
   id="svg5326"
   sodipodi:version="0.32"
   inkscape:version="0.47 r22583"
   sodipodi:docname="find2.svg"
   inkscape:output_extension="org.inkscape.output.svg.inkscape"
   version="1.1">
  <defs
     id="defs5328">
    <inkscape:perspective
       sodipodi:type="inkscape:persp3d"
       inkscape:vp_x="0 : 32 : 1"
       inkscape:vp_y="0 : 1000 : 0"
       inkscape:vp_z="64 : 32 : 1"
       inkscape:persp3d-origin="32 : 21.333333 : 1"
       id="perspective5334" />
    <inkscape:perspective
       id="perspective2877"
       inkscape:persp3d-origin="0.5 : 0.33333333 : 1"
       inkscape:vp_z="1 : 0.5 : 1"
       inkscape:vp_y="0 : 1000 : 0"
       inkscape:vp_x="0 : 0.5 : 1"
       sodipodi:type="inkscape:persp3d" />
    <inkscape:perspective
       id="perspective3602"
       inkscape:persp3d-origin="0.5 : 0.3333 : 1"
       inkscape:vp_z="1 : 0.5 : 1"
       inkscape:vp_y="0 : 1000 : 0"
       inkscape:vp_x="0 : 0.5 : 1"
       sodipodi:type="inkscape:persp3d" />
  </defs>
  <sodipodi:namedview
     id="base"
     pagecolor="#ffffff"
     bordercolor="#666666"
     borderopacity="1.0"
     inkscape:pageopacity="0.0"
     inkscape:pageshadow="2"
     inkscape:zoom="5.657"
     inkscape:cx="-65.93"
     inkscape:cy="35.2"
     inkscape:current-layer="layer1"
     showgrid="true"
     inkscape:document-units="px"
     inkscape:grid-bbox="true"
     inkscape:window-width="1920"
     inkscape:window-height="1080"
     inkscape:window-x="0"
     inkscape:window-y="0"
     objecttolerance="10"
     gridtolerance="10"
     guidetolerance="10"
     inkscape:window-maximized="0">
    <inkscape:grid
       type="xygrid"
       id="grid5336"
       dotted="true"
       visible="true"
       enabled="true" />
  </sodipodi:namedview>
  <metadata
     id="metadata5331">
    <rdf:RDF>
      <cc:Work
         rdf:about="">
        <dc:format>image/svg+xml</dc:format>
        <dc:type
           rdf:resource="http://purl.org/dc/dcmitype/StillImage" />
        <dc:subject>
          <rdf:Bag>
            <rdf:li>find</rdf:li>
            <rdf:li>search</rdf:li>
            <rdf:li>binoculars</rdf:li>
          </rdf:Bag>
        </dc:subject>
        <dc:title />
      </cc:Work>
    </rdf:RDF>
  </metadata>
  <g
     id="layer1"
     inkscape:label="Layer 1"
     inkscape:groupmode="layer">
    <path
       style="fill:#000000;fill-opacity:1;fill-rule:nonzero;stroke:none"
       d="M 21 2 C 17.39 2 14.34 4.397 13.34 7.688 L 12.31 11.09 C 16.29 8.936 21.35 8.782 25.38 10.91 C 26.73 11.59 27.95 12.51 29 13.59 L 29 10 C 29 5.582 25.42 2 21 2 z M 43 2 C 38.58 2 35 5.582 35 10 L 35 13.59 C 36.05 12.51 37.27 11.59 38.62 10.91 C 42.66 8.782 47.71 8.936 51.69 11.09 L 50.66 7.688 C 49.66 4.397 46.61 2 43 2 z M 18.5 13.38 C 14.42 13.52 10.67 16.48 9.469 20.34 L 1.594 46 C 1.214 47.27 1 48.61 1 50 C 1 57.73 7.268 64 15 64 C 22.73 64 29 57.73 29 50 L 29 36 L 35 36 L 35 50 C 35 57.73 41.27 64 49 64 C 56.73 64 63 57.73 63 50 C 63 48.61 62.79 47.27 62.41 46 L 54.53 20.34 C 53.33 16.48 49.58 13.52 45.5 13.38 C 41.32 13.08 37.16 15.79 35.69 19.72 C 35.28 20.76 35.05 21.88 35 23 L 35 28 L 29 28 L 29 23 C 28.95 21.88 28.72 20.76 28.31 19.72 C 26.84 15.79 22.68 13.08 18.5 13.38 z M 15 40 C 20.52 40 25 44.48 25 50 C 25 55.52 20.52 60 15 60 C 9.477 60 5 55.52 5 50 C 5 44.48 9.477 40 15 40 z M 49 40 C 54.52 40 59 44.48 59 50 C 59 55.52 54.52 60 49 60 C 43.48 60 39 55.52 39 50 C 39 44.48 43.48 40 49 40 z "
       id="path3759" />
  </g>
</svg>
