<?xml version="1.0" encoding="UTF-8" standalone="no"?>
<!-- Created with Inkscape (http://www.inkscape.org/) -->

<svg
   xmlns:dc="http://purl.org/dc/elements/1.1/"
   xmlns:cc="http://creativecommons.org/ns#"
   xmlns:rdf="http://www.w3.org/1999/02/22-rdf-syntax-ns#"
   xmlns:svg="http://www.w3.org/2000/svg"
   xmlns="http://www.w3.org/2000/svg"
   xmlns:sodipodi="http://sodipodi.sourceforge.net/DTD/sodipodi-0.dtd"
   xmlns:inkscape="http://www.inkscape.org/namespaces/inkscape"
   version="1.0"
   width="64"
   height="64"
   id="svg4729"
   sodipodi:version="0.32"
   inkscape:version="0.47 r22583"
   sodipodi:docname="heart.svg"
   inkscape:output_extension="org.inkscape.output.svg.inkscape">
  <metadata
     id="metadata7">
    <rdf:RDF>
      <cc:Work
         rdf:about="">
        <dc:format>image/svg+xml</dc:format>
        <dc:type
           rdf:resource="http://purl.org/dc/dcmitype/StillImage" />
        <dc:subject>
          <rdf:Bag>
            <rdf:li>heart</rdf:li>
            <rdf:li>favorites</rdf:li>
            <rdf:li>rate</rdf:li>
            <rdf:li>love</rdf:li>
            <rdf:li>like</rdf:li>
            <rdf:li>social</rdf:li>
          </rdf:Bag>
        </dc:subject>
        <dc:title />
      </cc:Work>
    </rdf:RDF>
  </metadata>
  <sodipodi:namedview
     inkscape:window-height="1080"
     inkscape:window-width="1920"
     inkscape:pageshadow="2"
     inkscape:pageopacity="0.0"
     guidetolerance="10.0"
     gridtolerance="10.0"
     objecttolerance="10.0"
     borderopacity="1.0"
     bordercolor="#666666"
     pagecolor="#ffffff"
     id="base"
     showgrid="true"
     inkscape:zoom="7.219"
     inkscape:cx="-52.5"
     inkscape:cy="32.12"
     inkscape:window-x="0"
     inkscape:window-y="0"
     inkscape:current-layer="icon"
     inkscape:window-maximized="0">
    <inkscape:grid
       type="xygrid"
       id="grid2380"
       visible="true"
       enabled="true"
       spacingx="4px"
       spacingy="4px"
       empspacing="4"
       dotted="true"
       originx="2px"
       originy="2px" />
  </sodipodi:namedview>
  <defs
     id="defs4731">
    <inkscape:perspective
       sodipodi:type="inkscape:persp3d"
       inkscape:vp_x="0 : 32 : 1"
       inkscape:vp_y="0 : 1000 : 0"
       inkscape:vp_z="64 : 32 : 1"
       inkscape:persp3d-origin="32 : 21.333333 : 1"
       id="perspective9" />
  </defs>
  <g
     id="icon"
     inkscape:label="">
    <path
       style="fill:#000000;fill-opacity:1;stroke:#000000;stroke-width:4;stroke-linecap:round;stroke-linejoin:round;stroke-miterlimit:4;stroke-opacity:1;stroke-dasharray:none"
       d="M 17.88,3.624 C 10.84,3.624 5.014,8.845 4.04,15.62 L 3.884,15.62 C 3.922,15.7 3.971,15.77 4.009,15.84 3.935,16.43 3.884,17.02 3.884,17.62 3.884,20.52 4.628,23.49 6,26 14.67,35.62 23.08,45.75 31.88,55.62 39.74,45.72 50.24,35.32 57.57,25.53 59.03,23.32 59.88,20.68 59.88,17.84 59.88,17.18 59.82,16.54 59.73,15.91 59.78,15.81 59.83,15.72 59.88,15.62 L 59.7,15.62 C 58.63,8.952 52.85,3.843 45.88,3.843 38.91,3.843 33.14,8.952 32.07,15.62 L 31.73,15.62 C 30.75,8.845 24.93,3.624 17.88,3.624 z"
       id="path3462"
       sodipodi:nodetypes="ccccscccscccsccc" />
  </g>
</svg>
