<?xml version="1.0" encoding="UTF-8" standalone="no"?>
<!-- Created with Inkscape (http://www.inkscape.org/) -->

<svg
   xmlns:dc="http://purl.org/dc/elements/1.1/"
   xmlns:cc="http://creativecommons.org/ns#"
   xmlns:rdf="http://www.w3.org/1999/02/22-rdf-syntax-ns#"
   xmlns:svg="http://www.w3.org/2000/svg"
   xmlns="http://www.w3.org/2000/svg"
   xmlns:sodipodi="http://sodipodi.sourceforge.net/DTD/sodipodi-0.dtd"
   xmlns:inkscape="http://www.inkscape.org/namespaces/inkscape"
   width="64px"
   height="64px"
   id="svg2381"
   sodipodi:version="0.32"
   inkscape:version="0.47 r22583"
   sodipodi:docname="help.svg"
   inkscape:output_extension="org.inkscape.output.svg.inkscape"
   version="1.1">
  <defs
     id="defs2383">
    <inkscape:perspective
       sodipodi:type="inkscape:persp3d"
       inkscape:vp_x="0 : 32 : 1"
       inkscape:vp_y="0 : 1000 : 0"
       inkscape:vp_z="64 : 32 : 1"
       inkscape:persp3d-origin="32 : 21.333333 : 1"
       id="perspective2389" />
  </defs>
  <sodipodi:namedview
     id="base"
     pagecolor="#ffffff"
     bordercolor="#666666"
     borderopacity="1.0"
     inkscape:pageopacity="0.0"
     inkscape:pageshadow="2"
     inkscape:zoom="5.5"
     inkscape:cx="-40.69"
     inkscape:cy="32"
     inkscape:current-layer="layer1"
     showgrid="true"
     inkscape:document-units="px"
     inkscape:grid-bbox="true"
     objecttolerance="10"
     gridtolerance="10"
     guidetolerance="10"
     inkscape:window-width="1920"
     inkscape:window-height="1080"
     inkscape:window-x="0"
     inkscape:window-y="0"
     inkscape:window-maximized="0">
    <inkscape:grid
       type="xygrid"
       id="grid2391"
       dotted="true"
       visible="true"
       enabled="true" />
  </sodipodi:namedview>
  <metadata
     id="metadata2386">
    <rdf:RDF>
      <cc:Work
         rdf:about="">
        <dc:format>image/svg+xml</dc:format>
        <dc:type
           rdf:resource="http://purl.org/dc/dcmitype/StillImage" />
        <dc:subject>
          <rdf:Bag>
            <rdf:li>help</rdf:li>
            <rdf:li>manual</rdf:li>
            <rdf:li>question</rdf:li>
            <rdf:li>faq</rdf:li>
          </rdf:Bag>
        </dc:subject>
      </cc:Work>
    </rdf:RDF>
  </metadata>
  <g
     id="layer1"
     inkscape:label="Layer 1"
     inkscape:groupmode="layer">
    <path
       style="font-size:61.8249px;font-style:normal;font-weight:normal;fill:#000000;fill-opacity:1;stroke:none;font-family:Bitstream Vera Sans"
       sodipodi:nodetypes="ccccccccccccccccccc"
       id="path2817"
       d="M 28.35,44.29 C 30.38,44.29 32.43,44.29 34.46,44.29 34.46,46.86 34.46,49.41 34.46,51.98 32.43,51.98 30.38,51.98 28.35,51.98 28.35,49.41 28.35,46.86 28.35,44.29 z M 34.28,39.84 C 32.36,39.84 30.44,39.84 28.53,39.84 28.64,36.53 28.1,37.04 29.48,33.92 31,31.04 33.63,29.02 35.85,26.71 37.92,24.84 39.6,21.95 38.61,19.1 37.56,15.91 33.85,14.64 30.78,14.99 27.19,15.31 23.93,17.09 21,19.1 21,17.21 21,15.31 21,13.41 26.06,10.28 32.56,8.925 38.28,10.92 42.07,12.28 44.97,15.98 44.99,20.08 45.3,23.61 43.21,26.75 40.78,29.07 38.81,31.14 36.5,32.92 34.96,35.33 33.93,37.72 34.37,36.4 34.28,38.93 34.28,39.24 34.28,39.54 34.28,39.84 z" />
    <path
       style="fill:none;stroke:#000000;stroke-width:6;stroke-linecap:round;stroke-linejoin:round;stroke-miterlimit:4;stroke-opacity:1;stroke-dashoffset:0"
       d="M 60,31.5 C 60,47.24 47.24,60 31.5,60 15.76,60 3,47.24 3,31.5 3,15.76 15.76,3 31.5,3 47.24,3 60,15.76 60,31.5 z"
       id="path3171" />
  </g>
</svg>
