<?xml version="1.0" encoding="UTF-8" standalone="no"?>
<!-- Created with Inkscape (http://www.inkscape.org/) -->

<svg
   xmlns:dc="http://purl.org/dc/elements/1.1/"
   xmlns:cc="http://creativecommons.org/ns#"
   xmlns:rdf="http://www.w3.org/1999/02/22-rdf-syntax-ns#"
   xmlns:svg="http://www.w3.org/2000/svg"
   xmlns="http://www.w3.org/2000/svg"
   xmlns:sodipodi="http://sodipodi.sourceforge.net/DTD/sodipodi-0.dtd"
   xmlns:inkscape="http://www.inkscape.org/namespaces/inkscape"
   width="64px"
   height="64px"
   id="svg2381"
   sodipodi:version="0.32"
   inkscape:version="0.47 r22583"
   sodipodi:docname="options.svg"
   inkscape:output_extension="org.inkscape.output.svg.inkscape"
   version="1.1">
  <defs
     id="defs2383">
    <inkscape:perspective
       sodipodi:type="inkscape:persp3d"
       inkscape:vp_x="0 : 32 : 1"
       inkscape:vp_y="0 : 1000 : 0"
       inkscape:vp_z="64 : 32 : 1"
       inkscape:persp3d-origin="32 : 21.333333 : 1"
       id="perspective2389" />
  </defs>
  <sodipodi:namedview
     id="base"
     pagecolor="#ffffff"
     bordercolor="#666666"
     borderopacity="1.0"
     inkscape:pageopacity="0.0"
     inkscape:pageshadow="2"
     inkscape:zoom="5.5"
     inkscape:cx="-15.94"
     inkscape:cy="17.45"
     inkscape:current-layer="layer1"
     showgrid="true"
     inkscape:document-units="px"
     inkscape:grid-bbox="true"
     inkscape:window-width="1920"
     inkscape:window-height="1080"
     inkscape:window-x="0"
     inkscape:window-y="0"
     inkscape:window-maximized="0">
    <inkscape:grid
       type="xygrid"
       id="grid3167" />
  </sodipodi:namedview>
  <metadata
     id="metadata2386">
    <rdf:RDF>
      <cc:Work
         rdf:about="">
        <dc:format>image/svg+xml</dc:format>
        <dc:type
           rdf:resource="http://purl.org/dc/dcmitype/StillImage" />
        <dc:subject>
          <rdf:Bag>
            <rdf:li>configuration</rdf:li>
            <rdf:li>options</rdf:li>
            <rdf:li>gear</rdf:li>
            <rdf:li>settings</rdf:li>
          </rdf:Bag>
        </dc:subject>
      </cc:Work>
    </rdf:RDF>
  </metadata>
  <g
     id="layer1"
     inkscape:label="Layer 1"
     inkscape:groupmode="layer">
    <path
       style="fill:#000000;fill-opacity:1;stroke:#000000;stroke-width:4;stroke-linecap:round;stroke-linejoin:miter;stroke-miterlimit:2;stroke-opacity:1;stroke-dasharray:none;stroke-dashoffset:0"
       d="M 31.81,4.156 C 21.28,4.242 31.46,10.26 22.37,15.59 13.32,20.91 12.99,9.112 7.812,18.25 2.616,27.42 12.9,21.62 12.97,32.16 13.03,42.66 2.681,37.04 8,46.09 13.34,55.18 13.47,43.36 22.62,48.56 31.75,53.75 21.69,59.93 32.19,59.84 42.72,59.76 32.54,53.74 41.63,48.41 50.68,43.09 51.01,54.89 56.19,45.75 61.38,36.58 51.1,42.38 51.03,31.84 50.97,21.34 61.32,26.96 56,17.91 50.66,8.823 50.53,20.64 41.38,15.44 32.25,10.25 42.31,4.071 31.81,4.156 z M 32,23.06 C 36.94,23.06 40.94,27.06 40.94,32 40.94,36.94 36.94,40.94 32,40.94 27.06,40.94 23.06,36.94 23.06,32 23.06,27.06 27.06,23.06 32,23.06 z"
       id="path2393" />
  </g>
</svg>
