<?xml version="1.0" encoding="UTF-8" standalone="no"?>
<!-- Created with Inkscape (http://www.inkscape.org/) -->

<svg
   xmlns:dc="http://purl.org/dc/elements/1.1/"
   xmlns:cc="http://creativecommons.org/ns#"
   xmlns:rdf="http://www.w3.org/1999/02/22-rdf-syntax-ns#"
   xmlns:svg="http://www.w3.org/2000/svg"
   xmlns="http://www.w3.org/2000/svg"
   xmlns:sodipodi="http://sodipodi.sourceforge.net/DTD/sodipodi-0.dtd"
   xmlns:inkscape="http://www.inkscape.org/namespaces/inkscape"
   version="1.0"
   width="64"
   height="64"
   id="svg4729"
   sodipodi:version="0.32"
   inkscape:version="0.47 r22583"
   sodipodi:docname="plane.svg"
   inkscape:output_extension="org.inkscape.output.svg.inkscape">
  <metadata
     id="metadata7">
    <rdf:RDF>
      <cc:Work
         rdf:about="">
        <dc:format>image/svg+xml</dc:format>
        <dc:type
           rdf:resource="http://purl.org/dc/dcmitype/StillImage" />
        <dc:subject>
          <rdf:Bag>
            <rdf:li>plane</rdf:li>
            <rdf:li>fly</rdf:li>
            <rdf:li>aeroplane</rdf:li>
            <rdf:li>transport</rdf:li>
            <rdf:li>airplane</rdf:li>
            <rdf:li>flight</rdf:li>
          </rdf:Bag>
        </dc:subject>
        <dc:title />
      </cc:Work>
    </rdf:RDF>
  </metadata>
  <sodipodi:namedview
     inkscape:window-height="1080"
     inkscape:window-width="1920"
     inkscape:pageshadow="2"
     inkscape:pageopacity="0.0"
     guidetolerance="10.0"
     gridtolerance="10.0"
     objecttolerance="10.0"
     borderopacity="1.0"
     bordercolor="#666666"
     pagecolor="#ffffff"
     id="base"
     showgrid="true"
     inkscape:zoom="7.219"
     inkscape:cx="-6.201"
     inkscape:cy="42.54"
     inkscape:window-x="0"
     inkscape:window-y="0"
     inkscape:current-layer="svg4729"
     inkscape:window-maximized="0">
    <inkscape:grid
       type="xygrid"
       id="grid2380"
       dotted="true"
       visible="true"
       enabled="true"
       spacingx="4px"
       spacingy="4px"
       originx="2px"
       originy="2px" />
  </sodipodi:namedview>
  <defs
     id="defs4731">
    <inkscape:perspective
       sodipodi:type="inkscape:persp3d"
       inkscape:vp_x="0 : 32 : 1"
       inkscape:vp_y="0 : 1000 : 0"
       inkscape:vp_z="64 : 32 : 1"
       inkscape:persp3d-origin="32 : 21.333333 : 1"
       id="perspective9" />
  </defs>
  <path
     style="fill:#000000;fill-opacity:1;fill-rule:nonzero;stroke:none"
     d="M 32,1.5 C 29,2.797 27.99,6.325 26.92,9.139 25.88,11.62 26.41,14.26 26.53,16.84 18.35,23.14 10.18,29.43 2,35.72 2,37.72 2,39.72 2,41.72 10.35,38.5 18.71,35.28 27.06,32.06 27.33,38.97 27.57,45.87 27.81,52.78 25.21,54.52 22.6,56.26 20,58 20,59.33 20,60.67 20,62 24,60.67 28,59.33 32,58 36,59.33 40,60.67 44,62 44,60.67 44,59.33 44,58 41.4,56.26 38.79,54.52 36.19,52.78 36.44,45.87 36.67,38.97 36.94,32.06 45.29,35.28 53.65,38.5 62,41.72 62,39.72 62,37.72 62,35.72 53.82,29.43 45.65,23.14 37.47,16.84 37.63,14.12 38.1,11.32 36.94,8.719 35.88,6.072 34.87,2.679 32,1.5 z"
     id="rect2817" />
</svg>
