<?xml version="1.0" encoding="UTF-8" standalone="no"?>
<!-- Created with Inkscape (http://www.inkscape.org/) -->

<svg
   xmlns:dc="http://purl.org/dc/elements/1.1/"
   xmlns:cc="http://creativecommons.org/ns#"
   xmlns:rdf="http://www.w3.org/1999/02/22-rdf-syntax-ns#"
   xmlns:svg="http://www.w3.org/2000/svg"
   xmlns="http://www.w3.org/2000/svg"
   xmlns:sodipodi="http://sodipodi.sourceforge.net/DTD/sodipodi-0.dtd"
   xmlns:inkscape="http://www.inkscape.org/namespaces/inkscape"
   version="1.0"
   width="64"
   height="64"
   id="svg4729"
   sodipodi:version="0.32"
   inkscape:version="0.47 r22583"
   sodipodi:docname="train.svg"
   inkscape:output_extension="org.inkscape.output.svg.inkscape">
  <metadata
     id="metadata7">
    <rdf:RDF>
      <cc:Work
         rdf:about="">
        <dc:format>image/svg+xml</dc:format>
        <dc:type
           rdf:resource="http://purl.org/dc/dcmitype/StillImage" />
        <dc:subject>
          <rdf:Bag>
            <rdf:li>train</rdf:li>
            <rdf:li>railway</rdf:li>
            <rdf:li>transport</rdf:li>
          </rdf:Bag>
        </dc:subject>
      </cc:Work>
    </rdf:RDF>
  </metadata>
  <sodipodi:namedview
     inkscape:window-height="1080"
     inkscape:window-width="1920"
     inkscape:pageshadow="2"
     inkscape:pageopacity="0.0"
     guidetolerance="10.0"
     gridtolerance="10.0"
     objecttolerance="10.0"
     borderopacity="1.0"
     bordercolor="#666666"
     pagecolor="#ffffff"
     id="base"
     showgrid="true"
     inkscape:zoom="7.219"
     inkscape:cx="-3.579"
     inkscape:cy="42.54"
     inkscape:window-x="0"
     inkscape:window-y="0"
     inkscape:current-layer="svg4729"
     inkscape:window-maximized="0">
    <inkscape:grid
       type="xygrid"
       id="grid2380"
       dotted="true"
       visible="true"
       enabled="true"
       spacingx="4px"
       spacingy="4px"
       originx="2px"
       originy="2px" />
  </sodipodi:namedview>
  <defs
     id="defs4731">
    <inkscape:perspective
       sodipodi:type="inkscape:persp3d"
       inkscape:vp_x="0 : 32 : 1"
       inkscape:vp_y="0 : 1000 : 0"
       inkscape:vp_z="64 : 32 : 1"
       inkscape:persp3d-origin="32 : 21.333333 : 1"
       id="perspective9" />
  </defs>
  <path
     style="fill:#000000;fill-opacity:1;stroke:#000000;stroke-width:4;stroke-linecap:round;stroke-linejoin:round;stroke-miterlimit:4;stroke-opacity:1;stroke-dasharray:none"
     d="M 17.44,2 C 13.31,2 10,5.31 10,9.438 L 10,42.56 C 10,46.69 13.31,50 17.44,50 L 46.56,50 C 50.69,50 54,46.69 54,42.56 L 54,9.438 C 54,5.31 50.69,2 46.56,2 L 17.44,2 z M 16.16,8.5 47.84,8.5 C 48.2,8.5 48.5,8.796 48.5,9.156 L 48.5,24.84 C 48.5,25.2 48.2,25.5 47.84,25.5 L 16.16,25.5 C 15.8,25.5 15.5,25.2 15.5,24.84 L 15.5,9.156 C 15.5,8.796 15.8,8.5 16.16,8.5 z M 20,34.06 C 23.28,34.06 25.94,36.72 25.94,40 25.94,43.28 23.28,45.94 20,45.94 16.72,45.94 14.06,43.28 14.06,40 14.06,36.72 16.72,34.06 20,34.06 z M 44,34.06 C 47.28,34.06 49.94,36.72 49.94,40 49.94,43.28 47.28,45.94 44,45.94 40.72,45.94 38.06,43.28 38.06,40 38.06,36.72 40.72,34.06 44,34.06 z"
     id="rect2380"
     sodipodi:nodetypes="cccccccccccccccccccsssccsssc" />
  <path
     style="fill:none;stroke:#000000;stroke-width:4;stroke-linecap:round;stroke-linejoin:round;stroke-miterlimit:4;stroke-opacity:1;stroke-dasharray:none"
     d="M 10,62 22,50"
     id="path2390" />
  <path
     style="fill:none;stroke:#000000;stroke-width:4;stroke-linecap:round;stroke-linejoin:round;stroke-miterlimit:4;stroke-opacity:1;stroke-dasharray:none"
     d="M 42,50 54,62"
     id="path2392"
     sodipodi:nodetypes="cc" />
</svg>
