<?xml version="1.0" encoding="UTF-8" standalone="no"?>
<!-- Created with Inkscape (http://www.inkscape.org/) -->

<svg
   xmlns:dc="http://purl.org/dc/elements/1.1/"
   xmlns:cc="http://creativecommons.org/ns#"
   xmlns:rdf="http://www.w3.org/1999/02/22-rdf-syntax-ns#"
   xmlns:svg="http://www.w3.org/2000/svg"
   xmlns="http://www.w3.org/2000/svg"
   xmlns:sodipodi="http://sodipodi.sourceforge.net/DTD/sodipodi-0.dtd"
   xmlns:inkscape="http://www.inkscape.org/namespaces/inkscape"
   version="1.0"
   width="64"
   height="64"
   id="svg4729"
   sodipodi:version="0.32"
   inkscape:version="0.47 r22583"
   sodipodi:docname="unsecure.svg"
   inkscape:output_extension="org.inkscape.output.svg.inkscape">
  <metadata
     id="metadata7">
    <rdf:RDF>
      <cc:Work
         rdf:about="">
        <dc:format>image/svg+xml</dc:format>
        <dc:type
           rdf:resource="http://purl.org/dc/dcmitype/StillImage" />
        <dc:subject>
          <rdf:Bag>
            <rdf:li>unsecure</rdf:li>
            <rdf:li>unlocked</rdf:li>
            <rdf:li>:unlock</rdf:li>
          </rdf:Bag>
        </dc:subject>
      </cc:Work>
    </rdf:RDF>
  </metadata>
  <sodipodi:namedview
     inkscape:window-height="1080"
     inkscape:window-width="1920"
     inkscape:pageshadow="2"
     inkscape:pageopacity="0.0"
     guidetolerance="10.0"
     gridtolerance="10.0"
     objecttolerance="10.0"
     borderopacity="1.0"
     bordercolor="#666666"
     pagecolor="#ffffff"
     id="base"
     showgrid="true"
     inkscape:zoom="7.219"
     inkscape:cx="-14.2"
     inkscape:cy="35.38"
     inkscape:window-x="0"
     inkscape:window-y="0"
     inkscape:current-layer="svg4729"
     inkscape:window-maximized="0">
    <inkscape:grid
       type="xygrid"
       id="grid2380"
       dotted="true"
       visible="true"
       enabled="true"
       spacingx="4px"
       spacingy="4px"
       originx="2px"
       originy="2px" />
  </sodipodi:namedview>
  <defs
     id="defs4731">
    <inkscape:perspective
       sodipodi:type="inkscape:persp3d"
       inkscape:vp_x="0 : 32 : 1"
       inkscape:vp_y="0 : 1000 : 0"
       inkscape:vp_z="64 : 32 : 1"
       inkscape:persp3d-origin="32 : 21.333333 : 1"
       id="perspective9" />
    <inkscape:perspective
       id="perspective3649"
       inkscape:persp3d-origin="0.5 : 0.33333333 : 1"
       inkscape:vp_z="1 : 0.5 : 1"
       inkscape:vp_y="0 : 1000 : 0"
       inkscape:vp_x="0 : 0.5 : 1"
       sodipodi:type="inkscape:persp3d" />
    <inkscape:perspective
       id="perspective2876"
       inkscape:persp3d-origin="0.5 : 0.33333333 : 1"
       inkscape:vp_z="1 : 0.5 : 1"
       inkscape:vp_y="0 : 1000 : 0"
       inkscape:vp_x="0 : 0.5 : 1"
       sodipodi:type="inkscape:persp3d" />
    <inkscape:perspective
       id="perspective2845"
       inkscape:persp3d-origin="0.5 : 0.33333333 : 1"
       inkscape:vp_z="1 : 0.5 : 1"
       inkscape:vp_y="0 : 1000 : 0"
       inkscape:vp_x="0 : 0.5 : 1"
       sodipodi:type="inkscape:persp3d" />
  </defs>
  <path
     style="font-size:medium;font-style:normal;font-variant:normal;font-weight:normal;font-stretch:normal;text-indent:0;text-align:start;text-decoration:none;line-height:normal;letter-spacing:normal;word-spacing:normal;text-transform:none;direction:ltr;block-progression:tb;writing-mode:lr-tb;text-anchor:start;color:#000000;fill:#000000;fill-opacity:1;stroke:none;stroke-width:8;marker:none;visibility:visible;display:inline;overflow:visible;enable-background:accumulate;font-family:Andale Mono;-inkscape-font-specification:Andale Mono"
     d="M 46,0 C 41.25,0 37.07,2.355 34.31,6.031 31.55,9.708 30,14.52 30,19.75 30,20.93 30.02,22.43 30.03,24 L 7.812,24 C 3.516,24 0,27.52 0,31.81 L 0,52.19 C 0,56.48 3.516,60 7.812,60 L 40.19,60 C 44.48,60 48,56.48 48,52.19 L 48,31.81 C 48,27.52 44.48,24 40.19,24 L 38.03,24 C 38.02,22.43 38,20.92 38,19.75 38,16.14 39.13,12.93 40.72,10.81 42.3,8.698 44.13,7.75 46,7.75 47.87,7.75 49.73,8.698 51.31,10.81 52.9,12.93 54,16.14 54,19.75 L 54,23.75 C 53.97,25.86 55.89,27.81 58,27.81 60.11,27.81 62.03,25.86 62,23.75 L 62,19.75 C 62,14.52 60.45,9.708 57.69,6.031 54.93,2.355 50.75,0 46,0 z M 24,34 C 27.31,34 30,36.69 30,40 30,42.22 28.79,44.15 27,45.19 L 27,53.25 C 27,53.66 26.66,54 26.25,54 L 21.75,54 C 21.34,54 21,53.66 21,53.25 L 21,45.19 C 19.21,44.15 18,42.22 18,40 18,36.69 20.69,34 24,34 z"
     id="path3588"
     sodipodi:nodetypes="cssccccccccccssssccsccsccsccccccsc" />
</svg>
