<?xml version="1.0" encoding="UTF-8" standalone="no"?>
<!-- Created with Inkscape (http://www.inkscape.org/) -->

<svg
   xmlns:dc="http://purl.org/dc/elements/1.1/"
   xmlns:cc="http://creativecommons.org/ns#"
   xmlns:rdf="http://www.w3.org/1999/02/22-rdf-syntax-ns#"
   xmlns:svg="http://www.w3.org/2000/svg"
   xmlns="http://www.w3.org/2000/svg"
   xmlns:sodipodi="http://sodipodi.sourceforge.net/DTD/sodipodi-0.dtd"
   xmlns:inkscape="http://www.inkscape.org/namespaces/inkscape"
   width="64px"
   height="64px"
   id="svg5326"
   sodipodi:version="0.32"
   inkscape:version="0.47 r22583"
   sodipodi:docname="usergroup.svg"
   inkscape:output_extension="org.inkscape.output.svg.inkscape"
   version="1.1">
  <defs
     id="defs5328">
    <inkscape:perspective
       sodipodi:type="inkscape:persp3d"
       inkscape:vp_x="0 : 32 : 1"
       inkscape:vp_y="0 : 1000 : 0"
       inkscape:vp_z="64 : 32 : 1"
       inkscape:persp3d-origin="32 : 21.333333 : 1"
       id="perspective5334" />
  </defs>
  <sodipodi:namedview
     id="base"
     pagecolor="#ffffff"
     bordercolor="#666666"
     borderopacity="1.0"
     inkscape:pageopacity="0.0"
     inkscape:pageshadow="2"
     inkscape:zoom="7.713"
     inkscape:cx="42.81"
     inkscape:cy="28.89"
     inkscape:current-layer="layer1"
     showgrid="true"
     inkscape:document-units="px"
     inkscape:grid-bbox="true"
     inkscape:window-width="1920"
     inkscape:window-height="1080"
     inkscape:window-x="0"
     inkscape:window-y="0"
     objecttolerance="10"
     gridtolerance="10"
     guidetolerance="10"
     inkscape:window-maximized="0">
    <inkscape:grid
       type="xygrid"
       id="grid5336"
       dotted="true"
       visible="true"
       enabled="true" />
  </sodipodi:namedview>
  <metadata
     id="metadata5331">
    <rdf:RDF>
      <cc:Work
         rdf:about="">
        <dc:format>image/svg+xml</dc:format>
        <dc:type
           rdf:resource="http://purl.org/dc/dcmitype/StillImage" />
        <dc:subject>
          <rdf:Bag>
            <rdf:li>users</rdf:li>
            <rdf:li>:group</rdf:li>
            <rdf:li>people</rdf:li>
            <rdf:li>friends</rdf:li>
            <rdf:li>customers</rdf:li>
            <rdf:li>participants</rdf:li>
            <rdf:li>persons</rdf:li>
            <rdf:li>men</rdf:li>
            <rdf:li>women</rdf:li>
            <rdf:li>guys</rdf:li>
          </rdf:Bag>
        </dc:subject>
        <dc:title />
      </cc:Work>
    </rdf:RDF>
  </metadata>
  <g
     id="layer1"
     inkscape:label="Layer 1"
     inkscape:groupmode="layer">
    <path
       style="fill:#000000;fill-opacity:1;stroke:#000000;stroke-width:4;stroke-linecap:round;stroke-linejoin:round;stroke-miterlimit:4;stroke-opacity:1;stroke-dasharray:none;stroke-dashoffset:0"
       d="M 11.97,38 C 9.1,40.6 5.157,42.36 3.592,46.14 2.076,49.91 2.215,54.07 2.375,58.06 13.58,62.24 26.3,62.24 37.5,58.06 37.66,53.89 37.83,49.5 36.04,45.62 34.33,42.16 30.64,40.5 27.91,38 25.91,41.36 21.76,43.56 17.86,42.49 15.39,41.87 13.31,40.13 11.97,38 z"
       id="path2385" />
    <path
       style="fill:#000000;fill-opacity:1;stroke:#000000;stroke-width:4;stroke-linecap:round;stroke-linejoin:round;stroke-miterlimit:4;stroke-opacity:1;stroke-dashoffset:0"
       d="M 30,21 C 30,27.63 25.52,33 20,33 14.48,33 10,27.63 10,21 10,14.37 14.48,9 20,9 25.52,9 30,14.37 30,21 z"
       id="path2411" />
    <path
       style="fill:#000000;fill-opacity:1;stroke:#000000;stroke-width:4;stroke-linecap:round;stroke-linejoin:round;stroke-miterlimit:4;stroke-opacity:1;stroke-dasharray:none;stroke-dashoffset:0"
       d="M 40,36 C 39.38,36.5 38.78,36.94 38.22,37.34 43.76,41.26 45.73,47.91 45.5,54.06 52.8,55.51 55,55.51 61.91,52.13 62.9,42.65 59.62,40.39 53.66,36 52.09,38.32 49.63,39.81 46.84,39.81 44.06,39.81 41.57,38.32 40,36 z"
       id="path3621"
       sodipodi:nodetypes="cccccsc" />
    <path
       style="fill:#000000;fill-opacity:1;stroke:#000000;stroke-width:4;stroke-linecap:round;stroke-linejoin:round;stroke-miterlimit:4;stroke-opacity:1;stroke-dashoffset:0"
       d="M 54.31,20.34 C 54.31,25.67 50.73,29.98 46.31,29.98 41.9,29.98 38.31,25.67 38.31,20.34 38.31,15.01 41.9,10.69 46.31,10.69 50.73,10.69 54.31,15.01 54.31,20.34 z"
       id="path3623" />
  </g>
</svg>
